<?xml version="1.0" encoding="UTF-8" standalone="no"?><!DOCTYPE svg PUBLIC "-//W3C//DTD SVG 1.1//EN" "http://www.w3.org/Graphics/SVG/1.1/DTD/svg11.dtd"><svg width="100%" height="100%" viewBox="0 0 134 134" version="1.1" xmlns="http://www.w3.org/2000/svg" xmlns:xlink="http://www.w3.org/1999/xlink" xml:space="preserve" xmlns:serif="http://www.serif.com/" style="fill-rule:evenodd;clip-rule:evenodd;stroke-linejoin:round;stroke-miterlimit:2;"><path d="M50,16.667l-25,-0c-4.572,-0 -8.333,3.761 -8.333,8.333l-0,25c-0,4.572 3.761,8.333 8.333,8.333l25,0c4.572,0 8.333,-3.761 8.333,-8.333l0,-25c0,-4.572 -3.761,-8.333 -8.333,-8.333Zm0,33.333l-25,0l0,-25l25,0l0,25Z" style="fill:#fff;fill-rule:nonzero;"/><path d="M108.333,16.667l-25,-0c-4.571,-0 -8.333,3.761 -8.333,8.333l0,25c0,4.572 3.762,8.333 8.333,8.333l25,0c4.572,0 8.334,-3.761 8.334,-8.333l-0,-25c-0,-4.572 -3.762,-8.333 -8.334,-8.333Zm0,33.333l-25,0l0,-25l25,0l0,25Z" style="fill:#fff;fill-rule:nonzero;"/><path d="M50,75l-25,0c-4.572,0 -8.333,3.762 -8.333,8.333l-0,25c-0,4.572 3.761,8.334 8.333,8.334l25,-0c4.572,-0 8.333,-3.762 8.333,-8.334l0,-25c0,-4.571 -3.761,-8.333 -8.333,-8.333Zm0,33.333l-25,0l0,-25l25,0l0,25Z" style="fill:#fff;fill-rule:nonzero;"/><path d="M108.333,75l-25,0c-4.571,0 -8.333,3.762 -8.333,8.333l0,25c0,4.572 3.762,8.334 8.333,8.334l25,-0c4.572,-0 8.334,-3.762 8.334,-8.334l-0,-25c-0,-4.571 -3.762,-8.333 -8.334,-8.333Zm0,33.333l-25,0l0,-25l25,0l0,25Z" style="fill:#fff;fill-rule:nonzero;"/><rect id="_Transparent_Rectangle_" x="0" y="0" width="133.333" height="133.333" style="fill:none;"/></svg>