<?xml version="1.0" encoding="UTF-8" standalone="no"?><!DOCTYPE svg PUBLIC "-//W3C//DTD SVG 1.1//EN" "http://www.w3.org/Graphics/SVG/1.1/DTD/svg11.dtd"><svg width="100%" height="100%" viewBox="0 0 2667 2667" version="1.1" xmlns="http://www.w3.org/2000/svg" xmlns:xlink="http://www.w3.org/1999/xlink" xml:space="preserve" xmlns:serif="http://www.serif.com/" style="fill-rule:evenodd;clip-rule:evenodd;stroke-linejoin:round;stroke-miterlimit:2;"><path d="M0,178.108l0,2310.45l563.909,2.17l-0,-783.683l326.791,-0l359.15,-356.641l-3.188,-815.964l-355.962,-364.193l-890.7,7.86Zm563.909,460.325l104.053,-0l-0,618.071l-104.053,-0l-0,-618.071Z" style="fill:#fff;"/><path d="M1701.8,2488.56l-356.072,-360.551l0,-1593.57l356.072,-356.333l603.68,-0l363.689,356.333l-2.505,544.057l-598.719,-0l-0,-440.065l-98.852,-0l0,1389.96l98.852,0l-0,-534.186l601.224,0l-0,633.8l-363.689,360.551l-603.68,0Z" style="fill:#fff;"/></svg>